<?xml version="1.0" standalone="no"?>
<!DOCTYPE svg PUBLIC "-//W3C//DTD SVG 20010904//EN"
 "http://www.w3.org/TR/2001/REC-SVG-20010904/DTD/svg10.dtd">
<svg version="1.0" xmlns="http://www.w3.org/2000/svg"
 width="426.000000pt" height="418.000000pt" viewBox="0 0 426.000000 418.000000"
 preserveAspectRatio="xMidYMid meet">

<g transform="translate(0.000000,418.000000) scale(0.100000,-0.100000)"
fill="#000000" stroke="none">
<path d="M895 3800 c-144 -5 -153 -7 -211 -37 -78 -41 -156 -125 -184 -199
-21 -57 -21 -58 -21 -1449 0 -1383 0 -1393 21 -1448 42 -113 125 -192 240
-227 64 -20 85 -20 1450 -18 l1385 3 66 32 c80 39 150 111 187 191 l27 57 0
1405 0 1405 -23 50 c-36 78 -71 124 -130 165 -105 75 -6 70 -1403 73 -690 1
-1321 0 -1404 -3z m2585 -1685 l0 -1315 -92 0 c-121 -1 -2324 -1 -2445 0 l-93
0 0 1315 0 1315 1315 0 1315 0 0 -1315z"/>
<path d="M1230 2865 l0 -185 940 0 940 0 0 185 0 185 -940 0 -940 0 0 -185z"/>
<path d="M1230 2110 l0 -189 938 2 937 2 3 188 2 187 -940 0 -940 0 0 -190z"/>
<path d="M1230 1360 l0 -190 655 0 655 0 0 190 0 190 -655 0 -655 0 0 -190z"/>
</g>
</svg>
