<?xml version="1.0" standalone="no"?>
<!DOCTYPE svg PUBLIC "-//W3C//DTD SVG 20010904//EN"
 "http://www.w3.org/TR/2001/REC-SVG-20010904/DTD/svg10.dtd">
<svg version="1.0" xmlns="http://www.w3.org/2000/svg"
 width="512.000000pt" height="512.000000pt" viewBox="0 0 512.000000 512.000000"
 preserveAspectRatio="xMidYMid meet">

<g transform="translate(0.000000,512.000000) scale(0.100000,-0.100000)"
fill="#000000" stroke="none">
<path d="M2330 5029 c-578 -52 -1112 -309 -1516 -731 -395 -415 -626 -954
-650 -1523 -7 -161 0 -203 49 -267 92 -121 280 -134 386 -27 57 56 72 105 82
260 10 159 21 232 56 374 146 596 603 1096 1183 1298 666 231 1402 70 1899
-416 117 -114 252 -279 240 -291 -2 -3 -78 -45 -169 -95 -176 -97 -212 -127
-231 -191 -23 -76 24 -165 104 -194 23 -9 238 -72 477 -141 348 -101 444 -125
479 -122 46 5 83 27 114 69 21 28 287 934 287 977 0 46 -42 114 -85 139 -72
41 -113 31 -325 -86 l-185 -102 -20 27 c-11 14 -46 61 -78 104 -233 313 -568
581 -925 738 -375 166 -779 235 -1172 200z"/>
<path d="M2475 4025 c-77 -42 -98 -82 -105 -204 l-5 -94 -80 -22 c-149 -41
-249 -98 -338 -195 -97 -104 -137 -212 -137 -365 0 -178 51 -299 179 -425 88
-87 175 -141 324 -200 l57 -22 0 -319 c0 -280 -2 -319 -15 -319 -9 0 -50 13
-93 30 -81 32 -156 77 -241 147 -79 65 -152 69 -230 12 -82 -59 -105 -173 -51
-251 76 -111 336 -259 530 -303 41 -9 81 -19 88 -21 8 -2 12 -32 12 -101 1
-170 58 -243 190 -243 133 0 189 73 190 245 l0 101 73 18 c101 26 178 58 263
111 184 115 285 315 270 540 -18 291 -172 470 -516 601 l-85 32 -3 286 c-2
268 -1 286 15 286 29 0 133 -36 203 -69 80 -38 148 -41 200 -10 42 26 55 41
80 94 40 82 13 171 -66 224 -68 44 -186 91 -304 119 -58 13 -111 26 -117 28
-9 2 -13 28 -13 81 0 95 -22 148 -75 189 -31 23 -50 29 -104 32 -47 2 -75 -2
-96 -13z m-105 -900 c0 -118 -3 -215 -8 -215 -12 0 -84 50 -119 83 -34 32 -47
62 -58 134 -7 44 17 116 47 141 20 16 120 72 131 72 4 0 7 -97 7 -215z m554
-856 c38 -45 56 -97 56 -163 0 -103 -59 -178 -178 -225 l-52 -21 0 261 0 260
71 -37 c38 -20 85 -54 103 -75z"/>
<path d="M4659 2709 c-57 -9 -98 -29 -140 -71 -55 -55 -70 -105 -80 -259 -10
-159 -21 -232 -56 -374 -113 -460 -413 -871 -821 -1125 -720 -446 -1659 -345
-2261 243 -117 114 -252 279 -240 291 2 3 78 45 169 95 176 97 212 127 231
191 23 76 -24 165 -104 194 -23 9 -238 72 -477 141 -348 101 -444 125 -479
122 -46 -5 -83 -27 -114 -69 -21 -28 -287 -934 -287 -977 0 -46 42 -114 85
-139 72 -41 113 -31 325 86 l185 102 20 -27 c11 -14 46 -61 78 -104 233 -313
568 -581 925 -738 573 -254 1208 -275 1792 -62 137 51 359 164 486 250 639
427 1027 1111 1060 1866 4 91 3 154 -5 181 -33 122 -162 203 -292 183z"/>
</g>
</svg>
